<svg width="44" height="44" viewBox="0 0 44 44" fill="none" xmlns="http://www.w3.org/2000/svg">
<path d="M22 0C9.8692 0 0 9.8692 0 22C0 34.1308 9.8692 44 22 44C34.1308 44 44 34.1308 44 22C44 9.8692 34.1308 0 22 0ZM17.6022 31.7086L10.99 25.1106C10.1303 24.2528 10.1286 22.8606 10.9861 22.0007C11.8442 21.1402 13.2374 21.1386 14.0974 21.9971L17.5978 25.4914L27.6892 15.4C28.5482 14.541 29.941 14.541 30.8 15.4C31.659 16.259 31.659 17.6518 30.8 18.5108L17.6022 31.7086Z" fill="black" fill-opacity="0.1"/>
</svg>
